# xmcd
# Track frame offsets:
# 150
# 18817
# 38677
# 58239
# 83712
# 102011
# 121896
# 139889
#
# Disc length: 2149 seconds
# Revision: 0
# Processed by: cddbd v1.4PL0 Copyright (c) Steve Scherf et al.
# Submitted via: VisiTrax 2.9.5.181 - For more info visit www.synapsa.com
#
DISCID=5d086308
DTITLE=Donnie Ray - Are Your Ready For Me
DYEAR=2003
DGENRE=Blues
TTITLE0=Never Meant To Be Alone
TTITLE1=Come Back
TTITLE2=One Slip
TTITLE3=From Now On
TTITLE4=I'm In The Mood
TTITLE5=Let's Keep Love Together
TTITLE6=I've Been Cheating
TTITLE7=You Put A Spell On Me
EXTD=
EXTT0=
EXTT1=
EXTT2=
EXTT3=
EXTT4=
EXTT5=
EXTT6=
EXTT7=
PLAYORDER=
